<?xml version="1.0" encoding="utf-8"?>
<!-- Generator: Adobe Illustrator 22.0.0, SVG Export Plug-In . SVG Version: 6.00 Build 0)  -->
<svg version="1.1" id="Layer_1" xmlns="http://www.w3.org/2000/svg" xmlns:xlink="http://www.w3.org/1999/xlink" x="0px" y="0px"
	 viewBox="0 0 512 512" style="enable-background:new 0 0 512 512;" xml:space="preserve">
<style type="text/css">
	.st0{fill:#FF9800;}
	.st1{fill:#03A9F4;}
	.st2{fill:#673AB7;stroke:#FFFFFF;stroke-width:20;stroke-miterlimit:10;}
</style>
<g>
	<circle class="st0" cx="114.5" cy="335.5" r="107.5"/>
	<path class="st0" d="M426.5,443h-202c-43.2,0-78.5-35.3-78.5-78.5v0c0-43.2,35.3-78.5,78.5-78.5h202c43.2,0,78.5,35.3,78.5,78.5v0
		C505,407.7,469.7,443,426.5,443z"/>
	<circle class="st1" cx="275" cy="256.5" r="185.5"/>
	<g>
		<path class="st2" d="M146.5,337.4V172.7H167v146.4h76.6v18.3H146.5z"/>
		<path class="st2" d="M286.7,285v-83.5h19.5v82.2c0,24.2,13.6,39.5,38.8,39.5c25.2,0,39-15.3,39-39.5v-82.2h19.5V285
			c0,33.6-19.8,55.3-58.5,55.3C306.2,340.3,286.7,318.4,286.7,285z"/>
	</g>
</g>
</svg>
