<?xml version="1.0" encoding="UTF-8"?>
<svg width="1282px" height="381px" viewBox="0 0 1282 381" version="1.1" xmlns="http://www.w3.org/2000/svg" xmlns:xlink="http://www.w3.org/1999/xlink">
    <g id="main" fill-rule="evenodd">
        <path d="M935.715716,82.3713866 C972.385604,54.3944137 1021.27569,37.3186613 1074.96144,37.3186613 C1188.75339,37.3186613 1281,114.034482 1281,208.668243 C1281,303.302004 1188.75339,380.017825 1074.96144,380.017825 C961.169486,380.017825 868.922881,303.302004 868.922881,208.668243 C868.922881,194.684351 870.937135,181.091706 874.737519,168.080028 C861.351136,173.212085 846.448283,176.074573 830.741724,176.074573 C794.716598,176.074573 762.919583,161.015697 743.951077,138.052262 C739.316479,155.598988 727.103034,170.794638 710.298412,181.162593 C712.0359,190.117789 712.938887,199.305318 712.938887,208.668243 C712.938887,303.302004 620.692282,380.017825 506.900327,380.017825 C393.108373,380.017825 300.861768,303.302004 300.861768,208.668243 C300.861768,194.684351 302.876022,181.091706 306.676406,168.080028 C293.290023,173.212085 278.38717,176.074573 262.680611,176.074573 C226.655485,176.074573 194.85847,161.015697 175.889964,138.052262 C167.192368,170.981618 131.802999,195.630775 89.468534,195.630775 C40.6087118,195.630775 1,162.797237 1,122.295016 C1,81.7927954 40.6087118,48.9592579 89.468534,48.9592579 C117.362441,48.9592579 142.241199,59.6604613 158.456221,76.3804862 C165.569753,33.7889566 209.522072,1 262.680611,1 C318.306172,1 363.851187,36.9029663 367.654603,82.3713866 C404.324491,54.3944137 453.214579,37.3186613 506.900327,37.3186613 C544.523511,37.3186613 579.791421,45.7050101 610.148655,60.3525377 C623.846113,53.1378581 640.099203,48.9592579 657.529647,48.9592579 C685.423554,48.9592579 710.302313,59.6604613 726.517334,76.3804862 C733.630866,33.7889566 777.583185,1 830.741724,1 C886.367285,1 931.9123,36.9029663 935.715716,82.3713866 Z" id="Combined-Shape"></path>
    </g>
</svg>