<?xml version="1.0" encoding="UTF-8"?>
<svg width="508px" height="222px" viewBox="0 0 508 222" version="1.1" xmlns="http://www.w3.org/2000/svg" xmlns:xlink="http://www.w3.org/1999/xlink">
  <g id="main" transform="translate(-504.000000, -461.000000)">
      <path d="M566.149658,683 C531.873114,683 504,655.129823 504,620.871939 C504,586.657508 531.873114,558.787331 566.149658,558.787331 C585.028642,558.787331 602.674735,567.260821 614.536559,582.056837 L628.266729,599.248244 L630.319737,577.363828 C636.47333,510.99359 691.394011,461 758.046166,461 C809.632066,461 856.025702,491.656651 876.202752,539.15708 L880.547743,549.363289 L889.563598,542.828925 C902.810388,533.317976 918.414335,528.282768 934.626581,528.282768 C977.299819,528.282768 1012,562.958895 1012,605.657679 C1012,648.318441 977.299819,683 934.626581,683 L566.149658,683 Z" id="Fill-1"></path>
  </g>
</svg>