<?xml version="1.0" encoding="utf-8"?>
<!-- Generator: Adobe Illustrator 22.0.0, SVG Export Plug-In . SVG Version: 6.00 Build 0)  -->
<svg version="1.1" id="Layer_1" xmlns="http://www.w3.org/2000/svg" xmlns:xlink="http://www.w3.org/1999/xlink" x="0px" y="0px"
	 viewBox="0 0 1280 380" style="enable-background:new 0 0 1280 380;" xml:space="preserve">
<style type="text/css">
	.st0{fill:#303030;}
</style>
<title>Combined Shape</title>
<desc>Created with Sketch.</desc>
<g id="Page-1">
	<path id="Combined-Shape" class="st0" d="M1266,145.5c9,19.3,14,40.3,14,62.2s-5,42.9-14,62.2V379h-189c-1,0-2,0-3,0s-2,0-3,0
		H508.9c-1,0-2,0-3,0s-2,0-3,0H0V138l0,0c-1.5-5.4,0-11,0-16.7C0,80.8,39.6,48,88.5,48c27.9,0,52.8,10.7,69,27.4
		C164.6,32.8,208.5,0,261.7,0c55.6,0,101.2,35.9,105,81.4c36.7-28,85.6-45.1,139.2-45.1c37.6,0,72.9,8.4,103.2,23
		c13.7-7.2,30-11.4,47.4-11.4c27.9,0,52.8,10.7,69,27.4C732.6,32.8,776.6,0,829.7,0c55.6,0,101.2,35.9,105,81.4
		c36.7-28,85.6-45.1,139.2-45.1c84,0,156.2,41.8,188.3,101.7 M174.6,138h1.1c-0.3-0.3-0.5-0.6-0.8-0.9
		C174.8,137.4,174.7,137.7,174.6,138z M742.7,138h1.1c-0.3-0.3-0.5-0.6-0.8-0.9C742.9,137.4,742.8,137.7,742.7,138L742.7,138z"/>
</g>
</svg>
